name ./resultDataOpenSim/trcMotMarkerGrf/sub09/grf-14-05.mot
datacolumns 19
datarows 30
range 0.96800000 1.08400000
endheader

                time	     ground_force_vx	     ground_force_vy	     ground_force_vz	     ground_force_px	     ground_force_py	     ground_force_pz	   l_ground_force_vx	   l_ground_force_vy	   l_ground_force_vz	   l_ground_force_px	   l_ground_force_py	   l_ground_force_pz	     ground_torque_x	     ground_torque_y	     ground_torque_z	   l_ground_torque_x	   l_ground_torque_y	   l_ground_torque_z	
          0.96800000	          0.00000000	          0.00000000	          0.00000000	          0.00000000	          0.00000000	          0.00000000	         23.67016433	        423.01052346	          8.00683841	          0.13910242	         -0.07500000	          0.03311222	          0.00000000	          0.00000000	          0.00000000	          0.00000000	         -1.28895225	          0.00000000	
          0.97200000	          0.00000000	          0.00000000	          0.00000000	          0.00000000	          0.00000000	          0.00000000	         26.03486350	        425.16531808	          7.52790612	          0.14018454	         -0.07500000	          0.03380109	          0.00000000	          0.00000000	          0.00000000	          0.00000000	         -1.48271822	          0.00000000	
          0.97600000	          0.00000000	          0.00000000	          0.00000000	          0.00000000	          0.00000000	          0.00000000	         28.51023329	        427.62700901	          6.95911696	          0.14129930	         -0.07500000	          0.03451053	          0.00000000	          0.00000000	          0.00000000	          0.00000000	         -1.70534691	          0.00000000	
          0.98000000	          0.00000000	          0.00000000	          0.00000000	          0.00000000	          0.00000000	          0.00000000	         31.10368007	        430.32749482	          6.33094347	          0.14244909	         -0.07500000	          0.03522862	          0.00000000	          0.00000000	          0.00000000	          0.00000000	         -1.95428141	          0.00000000	
          0.98400000	          0.00000000	          0.00000000	          0.00000000	          0.00000000	          0.00000000	          0.00000000	         33.83061809	        433.19903114	          5.67588481	          0.14362857	         -0.07500000	          0.03594897	          0.00000000	          0.00000000	          0.00000000	          0.00000000	         -2.22331054	          0.00000000	
          0.98800000	          0.00000000	          0.00000000	          0.00000000	          0.00000000	          0.00000000	          0.00000000	         36.71144129	        436.20629559	          5.00880477	          0.14481100	         -0.07500000	          0.03666439	          0.00000000	          0.00000000	          0.00000000	          0.00000000	         -2.50366617	          0.00000000	
          0.99200000	          0.00000000	          0.00000000	          0.00000000	          0.00000000	          0.00000000	          0.00000000	         39.78351459	        439.38697927	          4.33639678	          0.14597312	         -0.07500000	          0.03736823	          0.00000000	          0.00000000	          0.00000000	          0.00000000	         -2.78532582	          0.00000000	
          0.99600000	          0.00000000	          0.00000000	          0.00000000	          0.00000000	          0.00000000	          0.00000000	         43.10041770	        442.85903149	          3.68463992	          0.14709340	         -0.07500000	          0.03805887	          0.00000000	          0.00000000	          0.00000000	          0.00000000	         -3.05824203	          0.00000000	
          1.00000000	          0.00000000	          0.00000000	          0.00000000	          0.00000000	          0.00000000	          0.00000000	         46.71069967	        446.77383481	          3.10374358	          0.14813485	         -0.07500000	          0.03872913	          0.00000000	          0.00000000	          0.00000000	          0.00000000	         -3.31349788	          0.00000000	
          1.00400000	          0.00000000	          0.00000000	          0.00000000	          0.00000000	          0.00000000	          0.00000000	         50.63742509	        451.26407783	          2.64927426	          0.14905290	         -0.07500000	          0.03935642	          0.00000000	          0.00000000	          0.00000000	          0.00000000	         -3.54437068	          0.00000000	
          1.00800000	          0.00000000	          0.00000000	          0.00000000	          0.00000000	          0.00000000	          0.00000000	         54.87025972	        456.42018222	          2.35933344	          0.14984071	         -0.07500000	          0.03992547	          0.00000000	          0.00000000	          0.00000000	          0.00000000	         -3.74711050	          0.00000000	
          1.01200000	          0.00000000	          0.00000000	          0.00000000	          0.00000000	          0.00000000	          0.00000000	         59.36842612	        462.28704037	          2.23475090	          0.15049926	         -0.07500000	          0.04042785	          0.00000000	          0.00000000	          0.00000000	          0.00000000	         -3.92118446	          0.00000000	
          1.01600000	          0.00000000	          0.00000000	          0.00000000	          0.00000000	          0.00000000	          0.00000000	         64.07903724	        468.86392532	          2.23638637	          0.15105692	         -0.07500000	          0.04086774	          0.00000000	          0.00000000	          0.00000000	          0.00000000	         -4.06891563	          0.00000000	
          1.02000000	          0.00000000	          0.00000000	          0.00000000	          0.00000000	          0.00000000	          0.00000000	         68.95833594	        476.09004426	          2.30522960	          0.15158886	         -0.07500080	          0.04128640	          0.00000000	          0.00000000	          0.00000000	          0.00000000	         -4.19474000	          0.00000000	
          1.02400000	          0.00000000	          0.00000000	          0.00000000	          0.00000000	          0.00000000	          0.00000000	         73.96953258	        483.84582590	          2.37860372	          0.15218859	         -0.07500075	          0.04173834	          0.00000000	          0.00000000	          0.00000000	          0.00000000	         -4.30439442	          0.00000000	
          1.02800000	          0.00000000	          0.00000000	          0.00000000	          0.00000000	          0.00000000	          0.00000000	         79.07138804	        491.99230907	          2.38727436	          0.15290758	         -0.07500055	          0.04225685	          0.00000000	          0.00000000	          0.00000000	          0.00000000	         -4.40412300	          0.00000000	
          1.03200000	          0.00000000	          0.00000000	          0.00000000	          0.00000000	          0.00000000	          0.00000000	         84.22366058	        500.40041375	          2.25299714	          0.15374460	         -0.07500039	          0.04282303	          0.00000000	          0.00000000	          0.00000000	          0.00000000	         -4.49978616	          0.00000000	
          1.03600000	          0.00000000	          0.00000000	          0.00000000	          0.00000000	          0.00000000	          0.00000000	         89.39602083	        508.95929925	          1.90087261	          0.15463877	         -0.07500076	          0.04337853	          0.00000000	          0.00000000	          0.00000000	          0.00000000	         -4.59583405	          0.00000000	
          1.04000000	          0.00000000	          0.00000000	          0.00000000	          0.00000000	          0.00000000	          0.00000000	         94.56054969	        517.58977144	          1.27924379	          0.15548712	         -0.07500100	          0.04385843	          0.00000000	          0.00000000	          0.00000000	          0.00000000	         -4.69434358	          0.00000000	
          1.04400000	          0.00000000	          0.00000000	          0.00000000	          0.00000000	          0.00000000	          0.00000000	         99.67278657	        526.24612051	          0.37788998	          0.15619971	         -0.07500100	          0.04422033	          0.00000000	          0.00000000	          0.00000000	          0.00000000	         -4.79449862	          0.00000000	
          1.04800000	          0.00000000	          0.00000000	          0.00000000	          0.00000000	          0.00000000	          0.00000000	        104.66614686	        534.89134427	         -0.76322738	          0.15673820	         -0.07500100	          0.04447443	          0.00000000	          0.00000000	          0.00000000	          0.00000000	         -4.89286142	          0.00000000	
          1.05200000	          0.00000000	          0.00000000	          0.00000000	          0.00000000	          0.00000000	          0.00000000	        109.47207299	        543.45628739	         -2.06543175	          0.15713608	         -0.07500100	          0.04468468	          0.00000000	          0.00000000	          0.00000000	          0.00000000	         -4.98447689	          0.00000000	
          1.05600000	          0.00000000	          0.00000000	          0.00000000	          0.00000000	          0.00000000	          0.00000000	        114.03826046	        551.80555640	         -3.44356388	          0.15748752	         -0.07500100	          0.04493291	          0.00000000	          0.00000000	          0.00000000	          0.00000000	         -5.06440886	          0.00000000	
          1.06000000	          0.00000000	          0.00000000	          0.00000000	          0.00000000	          0.00000000	          0.00000000	        118.32147316	        559.74169712	         -4.84192304	          0.15789465	         -0.07500100	          0.04527391	          0.00000000	          0.00000000	          0.00000000	          0.00000000	         -5.12901280	          0.00000000	
          1.06400000	          0.00000000	          0.00000000	          0.00000000	          0.00000000	          0.00000000	          0.00000000	        122.27803035	        567.04875742	         -6.25156768	          0.15841211	         -0.07500100	          0.04571369	          0.00000000	          0.00000000	          0.00000000	          0.00000000	         -5.17633820	          0.00000000	
          1.06800000	          0.00000000	          0.00000000	          0.00000000	          0.00000000	          0.00000000	          0.00000000	        125.87799702	        573.53971293	         -7.69775710	          0.15903296	         -0.07500100	          0.04622115	          0.00000000	          0.00000000	          0.00000000	          0.00000000	         -5.20552146	          0.00000000	
          1.07200000	          0.00000000	          0.00000000	          0.00000000	          0.00000000	          0.00000000	          0.00000000	        129.12480559	        579.08692675	         -9.20782506	          0.15971658	         -0.07500100	          0.04675304	          0.00000000	          0.00000000	          0.00000000	          0.00000000	         -5.21561822	          0.00000000	
          1.07600000	          0.00000000	          0.00000000	          0.00000000	          0.00000000	          0.00000000	          0.00000000	        132.04971608	        583.63052314	        -10.78147087	          0.16042288	         -0.07500088	          0.04727353	          0.00000000	          0.00000000	          0.00000000	          0.00000000	         -5.20466576	          0.00000000	
          1.08000000	          0.00000000	          0.00000000	          0.00000000	          0.00000000	          0.00000000	          0.00000000	        134.68651519	        587.14583978	        -12.38280316	          0.16112436	         -0.07500047	          0.04776508	          0.00000000	          0.00000000	          0.00000000	          0.00000000	         -5.16959537	          0.00000000	
          1.08400000	          0.00000000	          0.00000000	          0.00000000	          0.00000000	          0.00000000	          0.00000000	        137.05437128	        589.57255963	        -13.96306950	          0.16181208	         -0.07500031	          0.04822428	          0.00000000	          0.00000000	          0.00000000	          0.00000000	         -5.10699642	          0.00000000	
